<svg width="310" height="292" viewBox="0 0 310 292" fill="none" xmlns="http://www.w3.org/2000/svg">
<rect width="310" height="292" fill="#31C6DB"/>
<path opacity="0.2" d="M100.975 27.8945L132.693 49.0402L155.161 16L176.307 49.0402L209.347 26.5729L214.633 66.2211L254.281 59.6131L243.709 96.6181L282.035 107.191L256.925 137.588L286 162.698L252.96 181.201L270.141 215.563L231.814 216.884V256.533L197.452 241.995L180.271 279L155.161 252.568L126.085 279L112.869 241.995L75.8643 256.533L78.5075 216.884L41.5025 214.241L57.3618 181.201L23 162.698L52.0754 137.588L28.2864 105.869L65.2915 97.9397L57.3618 59.6131L94.3668 66.2211L100.975 27.8945Z" fill="white"/>
<path d="M130.304 129.16C129.891 129.16 129.571 129.047 129.344 128.82C129.131 128.58 129.024 128.253 129.024 127.84V116.06C129.024 115.633 129.131 115.307 129.344 115.08C129.571 114.853 129.891 114.74 130.304 114.74C130.718 114.74 131.031 114.853 131.244 115.08C131.471 115.307 131.584 115.633 131.584 116.06V127.84C131.584 128.253 131.478 128.58 131.264 128.82C131.051 129.047 130.731 129.16 130.304 129.16ZM135.709 129.16C135.309 129.16 135.002 129.053 134.789 128.84C134.576 128.613 134.469 128.293 134.469 127.88V120.32C134.469 119.907 134.576 119.593 134.789 119.38C135.002 119.167 135.302 119.06 135.689 119.06C136.076 119.06 136.376 119.167 136.589 119.38C136.802 119.593 136.909 119.907 136.909 120.32V121.78L136.689 121.18C136.956 120.513 137.369 119.987 137.929 119.6C138.489 119.213 139.156 119.02 139.929 119.02C140.716 119.02 141.362 119.207 141.869 119.58C142.376 119.953 142.729 120.527 142.929 121.3H142.649C142.916 120.593 143.356 120.04 143.969 119.64C144.582 119.227 145.289 119.02 146.089 119.02C146.836 119.02 147.449 119.167 147.929 119.46C148.422 119.753 148.789 120.2 149.029 120.8C149.269 121.387 149.389 122.133 149.389 123.04V127.88C149.389 128.293 149.276 128.613 149.049 128.84C148.836 129.053 148.529 129.16 148.129 129.16C147.729 129.16 147.422 129.053 147.209 128.84C146.996 128.613 146.889 128.293 146.889 127.88V123.14C146.889 122.393 146.762 121.847 146.509 121.5C146.269 121.153 145.856 120.98 145.269 120.98C144.616 120.98 144.102 121.213 143.729 121.68C143.356 122.133 143.169 122.767 143.169 123.58V127.88C143.169 128.293 143.062 128.613 142.849 128.84C142.636 129.053 142.329 129.16 141.929 129.16C141.529 129.16 141.216 129.053 140.989 128.84C140.776 128.613 140.669 128.293 140.669 127.88V123.14C140.669 122.393 140.542 121.847 140.289 121.5C140.049 121.153 139.642 120.98 139.069 120.98C138.416 120.98 137.902 121.213 137.529 121.68C137.156 122.133 136.969 122.767 136.969 123.58V127.88C136.969 128.733 136.549 129.16 135.709 129.16ZM155.188 129.2C154.481 129.2 153.848 129.067 153.288 128.8C152.741 128.52 152.308 128.147 151.988 127.68C151.681 127.213 151.528 126.687 151.528 126.1C151.528 125.38 151.715 124.813 152.088 124.4C152.461 123.973 153.068 123.667 153.908 123.48C154.748 123.293 155.875 123.2 157.288 123.2H158.288V124.64H157.308C156.481 124.64 155.821 124.68 155.328 124.76C154.835 124.84 154.481 124.98 154.268 125.18C154.068 125.367 153.968 125.633 153.968 125.98C153.968 126.42 154.121 126.78 154.428 127.06C154.735 127.34 155.161 127.48 155.708 127.48C156.148 127.48 156.535 127.38 156.868 127.18C157.215 126.967 157.488 126.68 157.688 126.32C157.888 125.96 157.988 125.547 157.988 125.08V122.78C157.988 122.113 157.841 121.633 157.548 121.34C157.255 121.047 156.761 120.9 156.068 120.9C155.681 120.9 155.261 120.947 154.808 121.04C154.368 121.133 153.901 121.293 153.408 121.52C153.155 121.64 152.928 121.673 152.728 121.62C152.541 121.567 152.395 121.46 152.288 121.3C152.181 121.127 152.128 120.94 152.128 120.74C152.128 120.54 152.181 120.347 152.288 120.16C152.395 119.96 152.575 119.813 152.828 119.72C153.441 119.467 154.028 119.287 154.588 119.18C155.161 119.073 155.681 119.02 156.148 119.02C157.108 119.02 157.895 119.167 158.508 119.46C159.135 119.753 159.601 120.2 159.908 120.8C160.215 121.387 160.368 122.147 160.368 123.08V127.88C160.368 128.293 160.268 128.613 160.068 128.84C159.868 129.053 159.581 129.16 159.208 129.16C158.835 129.16 158.541 129.053 158.328 128.84C158.128 128.613 158.028 128.293 158.028 127.88V126.92H158.188C158.095 127.387 157.908 127.793 157.628 128.14C157.361 128.473 157.021 128.733 156.608 128.92C156.195 129.107 155.721 129.2 155.188 129.2ZM167.465 132.8C166.745 132.8 166.045 132.733 165.365 132.6C164.699 132.467 164.092 132.26 163.545 131.98C163.292 131.847 163.119 131.687 163.025 131.5C162.945 131.313 162.919 131.12 162.945 130.92C162.985 130.733 163.065 130.567 163.185 130.42C163.319 130.273 163.479 130.173 163.665 130.12C163.852 130.067 164.045 130.093 164.245 130.2C164.832 130.493 165.385 130.68 165.905 130.76C166.439 130.853 166.892 130.9 167.265 130.9C168.159 130.9 168.825 130.68 169.265 130.24C169.719 129.813 169.945 129.173 169.945 128.32V126.52H170.125C169.925 127.2 169.505 127.747 168.865 128.16C168.239 128.56 167.525 128.76 166.725 128.76C165.845 128.76 165.079 128.56 164.425 128.16C163.772 127.747 163.265 127.173 162.905 126.44C162.545 125.707 162.365 124.853 162.365 123.88C162.365 123.147 162.465 122.487 162.665 121.9C162.879 121.3 163.172 120.787 163.545 120.36C163.932 119.933 164.392 119.607 164.925 119.38C165.472 119.14 166.072 119.02 166.725 119.02C167.552 119.02 168.272 119.227 168.885 119.64C169.512 120.04 169.919 120.573 170.105 121.24L169.905 121.74V120.32C169.905 119.907 170.012 119.593 170.225 119.38C170.452 119.167 170.759 119.06 171.145 119.06C171.545 119.06 171.852 119.167 172.065 119.38C172.279 119.593 172.385 119.907 172.385 120.32V128.02C172.385 129.607 171.965 130.8 171.125 131.6C170.285 132.4 169.065 132.8 167.465 132.8ZM167.405 126.86C167.925 126.86 168.372 126.74 168.745 126.5C169.119 126.26 169.405 125.92 169.605 125.48C169.819 125.027 169.925 124.493 169.925 123.88C169.925 122.96 169.699 122.24 169.245 121.72C168.792 121.187 168.179 120.92 167.405 120.92C166.885 120.92 166.439 121.04 166.065 121.28C165.692 121.52 165.399 121.86 165.185 122.3C164.985 122.74 164.885 123.267 164.885 123.88C164.885 124.8 165.112 125.527 165.565 126.06C166.019 126.593 166.632 126.86 167.405 126.86ZM179.796 129.2C178.689 129.2 177.736 128.993 176.936 128.58C176.136 128.167 175.516 127.58 175.076 126.82C174.649 126.06 174.436 125.16 174.436 124.12C174.436 123.107 174.642 122.22 175.056 121.46C175.482 120.7 176.062 120.107 176.796 119.68C177.542 119.24 178.389 119.02 179.336 119.02C180.029 119.02 180.649 119.133 181.196 119.36C181.756 119.587 182.229 119.913 182.616 120.34C183.016 120.767 183.316 121.287 183.516 121.9C183.729 122.5 183.836 123.18 183.836 123.94C183.836 124.18 183.749 124.367 183.576 124.5C183.416 124.62 183.182 124.68 182.876 124.68H176.456V123.24H182.076L181.756 123.54C181.756 122.927 181.662 122.413 181.476 122C181.302 121.587 181.042 121.273 180.696 121.06C180.362 120.833 179.942 120.72 179.436 120.72C178.876 120.72 178.396 120.853 177.996 121.12C177.609 121.373 177.309 121.74 177.096 122.22C176.896 122.687 176.796 123.247 176.796 123.9V124.04C176.796 125.133 177.049 125.953 177.556 126.5C178.076 127.033 178.836 127.3 179.836 127.3C180.182 127.3 180.569 127.26 180.996 127.18C181.436 127.087 181.849 126.933 182.236 126.72C182.516 126.56 182.762 126.493 182.976 126.52C183.189 126.533 183.356 126.607 183.476 126.74C183.609 126.873 183.689 127.04 183.716 127.24C183.742 127.427 183.702 127.62 183.596 127.82C183.502 128.02 183.336 128.193 183.096 128.34C182.629 128.633 182.089 128.853 181.476 129C180.876 129.133 180.316 129.2 179.796 129.2ZM141.709 154.16C141.322 154.16 141.022 154.053 140.809 153.84C140.609 153.627 140.509 153.32 140.509 152.92V141.02C140.509 140.607 140.609 140.293 140.809 140.08C141.022 139.853 141.295 139.74 141.629 139.74C141.935 139.74 142.162 139.8 142.309 139.92C142.469 140.027 142.655 140.213 142.869 140.48L150.529 150.42H150.009V140.96C150.009 140.573 150.109 140.273 150.309 140.06C150.522 139.847 150.822 139.74 151.209 139.74C151.595 139.74 151.889 139.847 152.089 140.06C152.289 140.273 152.389 140.573 152.389 140.96V152.96C152.389 153.333 152.295 153.627 152.109 153.84C151.922 154.053 151.669 154.16 151.349 154.16C151.042 154.16 150.795 154.1 150.609 153.98C150.435 153.86 150.242 153.667 150.029 153.4L142.389 143.46H142.889V152.92C142.889 153.32 142.789 153.627 142.589 153.84C142.389 154.053 142.095 154.16 141.709 154.16ZM159.69 154.2C158.676 154.2 157.796 153.993 157.05 153.58C156.303 153.167 155.723 152.58 155.31 151.82C154.896 151.047 154.69 150.14 154.69 149.1C154.69 148.313 154.803 147.613 155.03 147C155.27 146.373 155.61 145.84 156.05 145.4C156.49 144.947 157.016 144.607 157.63 144.38C158.243 144.14 158.93 144.02 159.69 144.02C160.703 144.02 161.583 144.227 162.33 144.64C163.076 145.053 163.656 145.64 164.07 146.4C164.483 147.16 164.69 148.06 164.69 149.1C164.69 149.887 164.57 150.593 164.33 151.22C164.103 151.847 163.77 152.387 163.33 152.84C162.89 153.28 162.363 153.62 161.75 153.86C161.136 154.087 160.45 154.2 159.69 154.2ZM159.69 152.3C160.183 152.3 160.616 152.18 160.99 151.94C161.363 151.7 161.65 151.347 161.85 150.88C162.063 150.4 162.17 149.807 162.17 149.1C162.17 148.033 161.943 147.24 161.49 146.72C161.036 146.187 160.436 145.92 159.69 145.92C159.196 145.92 158.763 146.04 158.39 146.28C158.016 146.507 157.723 146.86 157.51 147.34C157.31 147.807 157.21 148.393 157.21 149.1C157.21 150.153 157.436 150.953 157.89 151.5C158.343 152.033 158.943 152.3 159.69 152.3ZM171.135 154.2C170.269 154.2 169.542 154.053 168.955 153.76C168.382 153.467 167.955 153.04 167.675 152.48C167.395 151.907 167.255 151.2 167.255 150.36V146.1H166.215C165.895 146.1 165.649 146.02 165.475 145.86C165.302 145.687 165.215 145.453 165.215 145.16C165.215 144.853 165.302 144.62 165.475 144.46C165.649 144.3 165.895 144.22 166.215 144.22H167.255V142.4C167.255 141.987 167.362 141.673 167.575 141.46C167.802 141.247 168.115 141.14 168.515 141.14C168.915 141.14 169.222 141.247 169.435 141.46C169.649 141.673 169.755 141.987 169.755 142.4V144.22H171.875C172.195 144.22 172.442 144.3 172.615 144.46C172.789 144.62 172.875 144.853 172.875 145.16C172.875 145.453 172.789 145.687 172.615 145.86C172.442 146.02 172.195 146.1 171.875 146.1H169.755V150.22C169.755 150.86 169.895 151.34 170.175 151.66C170.455 151.98 170.909 152.14 171.535 152.14C171.762 152.14 171.962 152.12 172.135 152.08C172.309 152.04 172.462 152.013 172.595 152C172.755 151.987 172.889 152.04 172.995 152.16C173.102 152.267 173.155 152.493 173.155 152.84C173.155 153.107 173.109 153.347 173.015 153.56C172.935 153.76 172.782 153.9 172.555 153.98C172.382 154.033 172.155 154.08 171.875 154.12C171.595 154.173 171.349 154.2 171.135 154.2ZM114.106 179.16C113.786 179.16 113.526 179.087 113.326 178.94C113.139 178.793 113.026 178.6 112.986 178.36C112.946 178.107 112.992 177.827 113.126 177.52L118.406 165.82C118.579 165.433 118.786 165.16 119.026 165C119.279 164.827 119.566 164.74 119.886 164.74C120.192 164.74 120.466 164.827 120.706 165C120.959 165.16 121.172 165.433 121.346 165.82L126.646 177.52C126.792 177.827 126.846 178.107 126.806 178.36C126.766 178.613 126.652 178.813 126.466 178.96C126.279 179.093 126.032 179.16 125.726 179.16C125.352 179.16 125.059 179.073 124.846 178.9C124.646 178.713 124.466 178.433 124.306 178.06L123.006 175.04L124.086 175.74H115.646L116.726 175.04L115.446 178.06C115.272 178.447 115.092 178.727 114.906 178.9C114.719 179.073 114.452 179.16 114.106 179.16ZM119.846 167.68L117.046 174.34L116.526 173.7H123.206L122.706 174.34L119.886 167.68H119.846ZM132.002 179.16C131.669 179.16 131.376 179.073 131.122 178.9C130.882 178.727 130.682 178.46 130.522 178.1L127.342 170.72C127.222 170.427 127.176 170.153 127.202 169.9C127.242 169.647 127.362 169.447 127.562 169.3C127.776 169.14 128.062 169.06 128.422 169.06C128.729 169.06 128.976 169.133 129.162 169.28C129.349 169.413 129.516 169.673 129.662 170.06L132.362 176.8H131.762L134.542 170.04C134.689 169.667 134.856 169.413 135.042 169.28C135.242 169.133 135.509 169.06 135.842 169.06C136.136 169.06 136.369 169.14 136.542 169.3C136.716 169.447 136.822 169.647 136.862 169.9C136.902 170.14 136.856 170.407 136.722 170.7L133.482 178.1C133.336 178.46 133.136 178.727 132.882 178.9C132.642 179.073 132.349 179.16 132.002 179.16ZM141.614 179.2C140.907 179.2 140.274 179.067 139.714 178.8C139.167 178.52 138.734 178.147 138.414 177.68C138.107 177.213 137.954 176.687 137.954 176.1C137.954 175.38 138.14 174.813 138.514 174.4C138.887 173.973 139.494 173.667 140.334 173.48C141.174 173.293 142.3 173.2 143.714 173.2H144.714V174.64H143.734C142.907 174.64 142.247 174.68 141.754 174.76C141.26 174.84 140.907 174.98 140.694 175.18C140.494 175.367 140.394 175.633 140.394 175.98C140.394 176.42 140.547 176.78 140.854 177.06C141.16 177.34 141.587 177.48 142.134 177.48C142.574 177.48 142.96 177.38 143.294 177.18C143.64 176.967 143.914 176.68 144.114 176.32C144.314 175.96 144.414 175.547 144.414 175.08V172.78C144.414 172.113 144.267 171.633 143.974 171.34C143.68 171.047 143.187 170.9 142.494 170.9C142.107 170.9 141.687 170.947 141.234 171.04C140.794 171.133 140.327 171.293 139.834 171.52C139.58 171.64 139.354 171.673 139.154 171.62C138.967 171.567 138.82 171.46 138.714 171.3C138.607 171.127 138.554 170.94 138.554 170.74C138.554 170.54 138.607 170.347 138.714 170.16C138.82 169.96 139 169.813 139.254 169.72C139.867 169.467 140.454 169.287 141.014 169.18C141.587 169.073 142.107 169.02 142.574 169.02C143.534 169.02 144.32 169.167 144.934 169.46C145.56 169.753 146.027 170.2 146.334 170.8C146.64 171.387 146.794 172.147 146.794 173.08V177.88C146.794 178.293 146.694 178.613 146.494 178.84C146.294 179.053 146.007 179.16 145.634 179.16C145.26 179.16 144.967 179.053 144.754 178.84C144.554 178.613 144.454 178.293 144.454 177.88V176.92H144.614C144.52 177.387 144.334 177.793 144.054 178.14C143.787 178.473 143.447 178.733 143.034 178.92C142.62 179.107 142.147 179.2 141.614 179.2ZM150.571 179.14C150.171 179.14 149.865 179.02 149.651 178.78C149.438 178.54 149.331 178.207 149.331 177.78V170.44C149.331 170 149.438 169.667 149.651 169.44C149.865 169.2 150.171 169.08 150.571 169.08C150.971 169.08 151.278 169.2 151.491 169.44C151.718 169.667 151.831 170 151.831 170.44V177.78C151.831 178.207 151.725 178.54 151.511 178.78C151.298 179.02 150.985 179.14 150.571 179.14ZM150.571 167.22C150.105 167.22 149.738 167.107 149.471 166.88C149.218 166.64 149.091 166.313 149.091 165.9C149.091 165.473 149.218 165.147 149.471 164.92C149.738 164.693 150.105 164.58 150.571 164.58C151.051 164.58 151.418 164.693 151.671 164.92C151.925 165.147 152.051 165.473 152.051 165.9C152.051 166.313 151.925 166.64 151.671 166.88C151.418 167.107 151.051 167.22 150.571 167.22ZM157.769 179.2C156.662 179.2 155.829 178.887 155.269 178.26C154.709 177.62 154.429 176.687 154.429 175.46V166C154.429 165.587 154.536 165.273 154.749 165.06C154.962 164.847 155.269 164.74 155.669 164.74C156.069 164.74 156.376 164.847 156.589 165.06C156.816 165.273 156.929 165.587 156.929 166V175.34C156.929 175.953 157.056 176.407 157.309 176.7C157.576 176.993 157.949 177.14 158.429 177.14C158.536 177.14 158.636 177.14 158.729 177.14C158.822 177.127 158.916 177.113 159.009 177.1C159.196 177.073 159.322 177.127 159.389 177.26C159.456 177.38 159.489 177.633 159.489 178.02C159.489 178.353 159.422 178.613 159.289 178.8C159.156 178.987 158.936 179.1 158.629 179.14C158.496 179.153 158.356 179.167 158.209 179.18C158.062 179.193 157.916 179.2 157.769 179.2ZM164.036 179.2C163.329 179.2 162.696 179.067 162.136 178.8C161.589 178.52 161.156 178.147 160.836 177.68C160.529 177.213 160.376 176.687 160.376 176.1C160.376 175.38 160.562 174.813 160.936 174.4C161.309 173.973 161.916 173.667 162.756 173.48C163.596 173.293 164.722 173.2 166.136 173.2H167.136V174.64H166.156C165.329 174.64 164.669 174.68 164.176 174.76C163.682 174.84 163.329 174.98 163.116 175.18C162.916 175.367 162.816 175.633 162.816 175.98C162.816 176.42 162.969 176.78 163.276 177.06C163.582 177.34 164.009 177.48 164.556 177.48C164.996 177.48 165.382 177.38 165.716 177.18C166.062 176.967 166.336 176.68 166.536 176.32C166.736 175.96 166.836 175.547 166.836 175.08V172.78C166.836 172.113 166.689 171.633 166.396 171.34C166.102 171.047 165.609 170.9 164.916 170.9C164.529 170.9 164.109 170.947 163.656 171.04C163.216 171.133 162.749 171.293 162.256 171.52C162.002 171.64 161.776 171.673 161.576 171.62C161.389 171.567 161.242 171.46 161.136 171.3C161.029 171.127 160.976 170.94 160.976 170.74C160.976 170.54 161.029 170.347 161.136 170.16C161.242 169.96 161.422 169.813 161.676 169.72C162.289 169.467 162.876 169.287 163.436 169.18C164.009 169.073 164.529 169.02 164.996 169.02C165.956 169.02 166.742 169.167 167.356 169.46C167.982 169.753 168.449 170.2 168.756 170.8C169.062 171.387 169.216 172.147 169.216 173.08V177.88C169.216 178.293 169.116 178.613 168.916 178.84C168.716 179.053 168.429 179.16 168.056 179.16C167.682 179.16 167.389 179.053 167.176 178.84C166.976 178.613 166.876 178.293 166.876 177.88V176.92H167.036C166.942 177.387 166.756 177.793 166.476 178.14C166.209 178.473 165.869 178.733 165.456 178.92C165.042 179.107 164.569 179.2 164.036 179.2ZM177.393 179.2C176.566 179.2 175.84 178.993 175.213 178.58C174.6 178.167 174.193 177.613 173.993 176.92L174.213 176.42V177.88C174.213 178.293 174.106 178.613 173.893 178.84C173.68 179.053 173.38 179.16 172.993 179.16C172.593 179.16 172.286 179.053 172.073 178.84C171.86 178.613 171.753 178.293 171.753 177.88V166C171.753 165.587 171.86 165.273 172.073 165.06C172.286 164.847 172.593 164.74 172.993 164.74C173.393 164.74 173.7 164.847 173.913 165.06C174.14 165.273 174.253 165.587 174.253 166V171.2H174.013C174.226 170.547 174.64 170.02 175.253 169.62C175.866 169.22 176.58 169.02 177.393 169.02C178.26 169.02 179.013 169.227 179.653 169.64C180.293 170.053 180.793 170.64 181.153 171.4C181.513 172.147 181.693 173.047 181.693 174.1C181.693 175.14 181.513 176.047 181.153 176.82C180.793 177.58 180.286 178.167 179.633 178.58C178.993 178.993 178.246 179.2 177.393 179.2ZM176.693 177.3C177.186 177.3 177.62 177.18 177.993 176.94C178.366 176.7 178.653 176.347 178.853 175.88C179.066 175.4 179.173 174.807 179.173 174.1C179.173 173.033 178.946 172.24 178.493 171.72C178.04 171.187 177.44 170.92 176.693 170.92C176.2 170.92 175.766 171.04 175.393 171.28C175.02 171.507 174.726 171.86 174.513 172.34C174.313 172.807 174.213 173.393 174.213 174.1C174.213 175.153 174.44 175.953 174.893 176.5C175.346 177.033 175.946 177.3 176.693 177.3ZM187.085 179.2C185.979 179.2 185.145 178.887 184.585 178.26C184.025 177.62 183.745 176.687 183.745 175.46V166C183.745 165.587 183.852 165.273 184.065 165.06C184.279 164.847 184.585 164.74 184.985 164.74C185.385 164.74 185.692 164.847 185.905 165.06C186.132 165.273 186.245 165.587 186.245 166V175.34C186.245 175.953 186.372 176.407 186.625 176.7C186.892 176.993 187.265 177.14 187.745 177.14C187.852 177.14 187.952 177.14 188.045 177.14C188.139 177.127 188.232 177.113 188.325 177.1C188.512 177.073 188.639 177.127 188.705 177.26C188.772 177.38 188.805 177.633 188.805 178.02C188.805 178.353 188.739 178.613 188.605 178.8C188.472 178.987 188.252 179.1 187.945 179.14C187.812 179.153 187.672 179.167 187.525 179.18C187.379 179.193 187.232 179.2 187.085 179.2ZM194.854 179.2C193.748 179.2 192.794 178.993 191.994 178.58C191.194 178.167 190.574 177.58 190.134 176.82C189.708 176.06 189.494 175.16 189.494 174.12C189.494 173.107 189.701 172.22 190.114 171.46C190.541 170.7 191.121 170.107 191.854 169.68C192.601 169.24 193.448 169.02 194.394 169.02C195.088 169.02 195.708 169.133 196.254 169.36C196.814 169.587 197.288 169.913 197.674 170.34C198.074 170.767 198.374 171.287 198.574 171.9C198.788 172.5 198.894 173.18 198.894 173.94C198.894 174.18 198.808 174.367 198.634 174.5C198.474 174.62 198.241 174.68 197.934 174.68H191.514V173.24H197.134L196.814 173.54C196.814 172.927 196.721 172.413 196.534 172C196.361 171.587 196.101 171.273 195.754 171.06C195.421 170.833 195.001 170.72 194.494 170.72C193.934 170.72 193.454 170.853 193.054 171.12C192.668 171.373 192.368 171.74 192.154 172.22C191.954 172.687 191.854 173.247 191.854 173.9V174.04C191.854 175.133 192.108 175.953 192.614 176.5C193.134 177.033 193.894 177.3 194.894 177.3C195.241 177.3 195.628 177.26 196.054 177.18C196.494 177.087 196.908 176.933 197.294 176.72C197.574 176.56 197.821 176.493 198.034 176.52C198.248 176.533 198.414 176.607 198.534 176.74C198.668 176.873 198.748 177.04 198.774 177.24C198.801 177.427 198.761 177.62 198.654 177.82C198.561 178.02 198.394 178.193 198.154 178.34C197.688 178.633 197.148 178.853 196.534 179C195.934 179.133 195.374 179.2 194.854 179.2Z" fill="#F86250" fill-opacity="0.54"/>
</svg>
