<svg width="36" height="29" viewBox="0 0 36 29" fill="none" xmlns="http://www.w3.org/2000/svg">
<path d="M6.72 2.57999C7.52 1.53999 8.36 0.939994 9.24 0.779996C10.2 0.619998 11 0.779999 11.64 1.26C12.36 1.74 12.76 2.46 12.84 3.42C12.92 4.38 12.52 5.41999 11.64 6.53999C10.28 8.22 9.32 9.98 8.76 11.82C8.28 13.58 8.04 15.18 8.04 16.62L7.56 13.86C9.8 13.86 11.6 14.54 12.96 15.9C14.4 17.18 15.12 18.9 15.12 21.06C15.12 23.06 14.48 24.74 13.2 26.1C11.92 27.38 10.2 28.02 8.04 28.02C5.88 28.02 4.12 27.26 2.76 25.74C1.48 24.22 0.84 22.06 0.84 19.26C0.84 17.58 1 15.82 1.32 13.98C1.72 12.06 2.32 10.14 3.12 8.21999C4 6.29999 5.2 4.41999 6.72 2.57999ZM27.36 2.57999C28.16 1.53999 29 0.939994 29.88 0.779996C30.84 0.619998 31.64 0.779999 32.28 1.26C33 1.74 33.4 2.46 33.48 3.42C33.56 4.38 33.16 5.41999 32.28 6.53999C30.92 8.22 29.96 9.98 29.4 11.82C28.92 13.58 28.68 15.18 28.68 16.62L28.2 13.86C30.44 13.86 32.24 14.54 33.6 15.9C35.04 17.18 35.76 18.9 35.76 21.06C35.76 23.06 35.12 24.74 33.84 26.1C32.56 27.38 30.84 28.02 28.68 28.02C26.52 28.02 24.76 27.26 23.4 25.74C22.12 24.22 21.48 22.06 21.48 19.26C21.48 17.58 21.64 15.82 21.96 13.98C22.36 12.06 22.96 10.14 23.76 8.21999C24.64 6.29999 25.84 4.41999 27.36 2.57999Z" fill="black"/>
</svg>
