<svg width="272" height="309" viewBox="0 0 272 309" fill="none" xmlns="http://www.w3.org/2000/svg">
<rect width="272" height="309" rx="6" fill="#31C6DB"/>
<path opacity="0.2" d="M90.3015 51.2663L117.678 69.5176L137.07 41L155.322 69.5176L183.839 50.1256L188.402 84.3467L222.623 78.6432L213.497 110.583L246.578 119.709L224.905 145.945L250 167.618L221.482 183.588L236.312 213.246L203.231 214.387V248.608L173.573 236.06L158.744 268L137.07 245.186L111.975 268L100.568 236.06L68.6281 248.608L70.9095 214.387L38.9698 212.106L52.6583 183.588L23 167.618L48.0955 145.945L27.5628 118.568L59.5025 111.724L52.6583 78.6432L84.598 84.3467L90.3015 51.2663Z" fill="white"/>
</svg>
