<svg width="59" height="59" viewBox="0 0 59 59" fill="none" xmlns="http://www.w3.org/2000/svg">
<path d="M36.2241 16.0961L48.4946 9.29799L42.4024 21.9338L42.0995 22.5621L42.7918 22.6473L56.7146 24.3599L44.3588 31.0016L43.7445 31.3318L44.2544 31.8076L54.5116 41.3768L40.6117 39.4874L39.9205 39.3935L40.0535 40.0782L42.7271 53.8489L32.5923 44.1501L32.0884 43.6679L31.7935 44.3L25.8623 57.0122L23.3638 43.2087L23.2396 42.5224L22.6295 42.8604L10.359 49.6585L16.4512 37.0227L16.7541 36.3944L16.0619 36.3093L2.13898 34.5967L14.4948 27.9549L15.1092 27.6247L14.5992 27.1489L4.34197 17.5797L18.242 19.4691L18.9331 19.563L18.8001 18.8783L16.1265 5.10766L26.2613 14.8064L26.7652 15.2886L27.0601 14.6565L32.9913 1.94431L35.4898 15.7478L35.614 16.4341L36.2241 16.0961Z" fill="#31C6DB" stroke="black"/>
</svg>
