<svg width="96" height="94" viewBox="0 0 96 94" fill="none" xmlns="http://www.w3.org/2000/svg">
<path d="M46.0965 25.8393L46.5672 26.4993L46.9457 25.7824L59.0764 2.8012L58.8493 28.7865L58.8422 29.5972L59.5698 29.2396L82.8918 17.7777L67.4343 38.6668L66.952 39.3185L67.7509 39.4569L93.3559 43.8923L68.5722 51.7062L67.799 51.95L68.3639 52.5315L86.4717 71.17L61.8284 62.9242L61.0596 62.6669L61.1748 63.4694L64.8689 89.1918L49.7788 68.0358L49.308 67.3757L48.9296 68.0927L36.7989 91.0739L37.0259 65.0886L37.033 64.2779L36.3054 64.6355L12.9835 76.0974L28.441 55.2083L28.9232 54.5566L28.1244 54.4182L2.5194 49.9828L27.3031 42.1689L28.0763 41.9251L27.5113 41.3436L9.40354 22.7051L34.0469 30.9509L34.8157 31.2082L34.7004 30.4057L31.0064 4.68329L46.0965 25.8393Z" fill="#31C6DB" stroke="black"/>
</svg>
