<svg width="96" height="94" viewBox="0 0 96 94" fill="none" xmlns="http://www.w3.org/2000/svg">
<path d="M46.1258 26.311L46.6 26.9884L46.9796 26.2538L59.0569 2.87826L58.5958 29.1854L58.5813 30.0121L59.3202 29.6409L82.8307 17.8286L66.9947 38.8404L66.497 39.5008L67.313 39.6348L93.2765 43.8976L68.1145 51.5883L67.3237 51.83L67.9051 52.418L86.4044 71.1277L61.5274 62.5598L60.7456 62.2905L60.8703 63.108L64.8393 89.118L49.7495 67.5641L49.2752 66.8867L48.8956 67.6213L36.8183 90.9968L37.2795 64.6897L37.294 63.8629L36.5551 64.2342L13.0445 76.0465L28.8805 55.0346L29.3782 54.3743L28.5622 54.2403L2.59872 49.9775L27.7608 42.2868L28.5515 42.045L27.9702 41.457L9.47083 22.7474L34.3479 31.3153L35.1297 31.5846L35.005 30.7671L31.0359 4.75708L46.1258 26.311Z" fill="#F86250" stroke="black"/>
</svg>
