<svg width="96" height="94" viewBox="0 0 96 94" fill="none" xmlns="http://www.w3.org/2000/svg">
<path d="M46.1848 27.2547L46.6656 27.9668L47.0471 27.1969L59.0151 3.04391L58.0888 29.9835L58.0593 30.8422L58.8205 30.4436L82.6995 17.9381L66.1155 39.1881L65.5868 39.8655L66.437 39.9904L93.1061 43.909L67.1988 51.3528L66.3729 51.5901L66.9873 52.1908L86.2598 71.0368L60.925 61.831L60.1174 61.5375L60.2613 62.3847L64.7758 88.9594L49.6905 66.6204L49.2096 65.9083L48.8281 66.6782L36.8601 90.8312L37.7864 63.8916L37.816 63.0329L37.0548 63.4315L13.1757 75.937L29.7598 54.687L30.2884 54.0096L29.4383 53.8846L2.76918 49.9661L28.6765 42.5223L29.5023 42.285L28.888 41.6842L9.61545 22.8383L34.9502 32.0441L35.7578 32.3375L35.6139 31.4904L31.0995 4.91566L46.1848 27.2547Z" fill="#31C6DB" stroke="black"/>
</svg>
